<?xml version="1.0" standalone="no"?>
<!DOCTYPE svg PUBLIC "-//W3C//DTD SVG 20010904//EN"
 "http://www.w3.org/TR/2001/REC-SVG-20010904/DTD/svg10.dtd">
<svg version="1.0" xmlns="http://www.w3.org/2000/svg"
 width="500.000000pt" height="500.000000pt" viewBox="0 0 500.000000 500.000000"
 preserveAspectRatio="xMidYMid meet">

<g transform="translate(0.000000,500.000000) scale(0.100000,-0.100000)"
fill="#1e2238" stroke="none">
<path d="M1990 4281 c-111 -36 -189 -119 -350 -372 -187 -293 -346 -638 -522
-1129 -74 -206 -156 -451 -182 -545 -27 -93 -56 -190 -66 -215 -10 -25 -18
-58 -18 -75 1 -42 -123 -768 -133 -781 -5 -6 -36 -19 -69 -29 -95 -29 -102
-70 -14 -86 27 -5 54 -15 60 -22 8 -9 7 -57 -7 -192 -20 -196 -28 -458 -16
-492 9 -25 36 -38 51 -23 5 5 20 10 32 10 18 0 23 8 28 43 6 36 129 572 142
618 3 13 24 18 92 23 126 11 229 32 344 72 127 44 151 57 285 146 217 143 327
234 488 400 95 99 154 153 149 138 -11 -35 -6 -386 7 -499 21 -187 74 -291
146 -291 71 0 118 44 172 160 18 38 82 263 156 543 69 262 137 510 152 550 29
83 98 222 113 232 13 8 13 13 -6 -184 -11 -113 -14 -226 -11 -356 4 -206 17
-269 62 -323 26 -31 80 -49 99 -33 6 5 26 12 43 16 19 4 41 18 52 34 11 15 52
136 90 268 74 256 102 331 132 359 24 22 25 21 38 -152 20 -251 70 -349 192
-369 88 -15 286 68 425 179 90 71 142 137 151 192 6 34 5 36 -15 25 -29 -15
-52 -14 -52 4 0 20 -39 19 -70 -2 -14 -9 -81 -71 -150 -138 -125 -123 -175
-157 -242 -170 -31 -6 -38 -3 -56 22 -30 43 -40 91 -57 291 -17 191 -22 219
-50 242 -13 11 -21 11 -35 2 -14 -9 -21 -8 -30 3 -24 29 -66 18 -103 -26 -45
-52 -84 -149 -157 -393 -82 -274 -99 -304 -127 -225 -9 25 -12 130 -10 404 2
415 -2 446 -57 436 -5 -1 -22 3 -38 10 -43 17 -69 1 -105 -67 -67 -125 -138
-335 -254 -747 -116 -415 -170 -581 -209 -641 -17 -27 -18 -27 -28 -10 -16 30
-32 149 -41 289 -9 157 17 565 48 744 38 220 104 431 177 571 43 81 43 94 4
85 -22 -5 -32 -3 -36 9 -10 25 -41 19 -64 -14 -61 -86 -112 -241 -176 -535
l-48 -220 -151 -185 c-230 -284 -396 -441 -588 -558 -190 -117 -349 -173 -554
-197 l-53 -6 0 31 c0 37 8 44 140 130 245 160 397 356 416 539 8 71 -12 123
-58 151 -42 26 -92 25 -134 -1 -37 -22 -98 -109 -140 -197 -103 -217 -167
-359 -167 -374 -1 -9 -5 -14 -9 -12 -4 3 -8 1 -8 -4 0 -17 -78 -114 -107 -133
-39 -26 -53 -24 -53 8 0 34 97 639 115 715 15 67 34 94 149 216 60 63 164 207
386 531 274 402 318 471 455 728 167 311 217 435 234 584 14 128 -5 194 -70
247 -32 26 -89 36 -129 23z m86 -176 c-16 -184 -63 -306 -260 -673 -119 -221
-178 -315 -453 -718 -174 -255 -318 -462 -320 -460 -8 7 42 161 153 474 136
385 336 832 467 1041 142 226 275 386 352 422 60 27 69 14 61 -86z m-435 -298
c-10 -9 -11 -8 -5 6 3 10 9 15 12 12 3 -3 0 -11 -7 -18z m-141 -257 c0 -5 -5
-10 -11 -10 -5 0 -7 5 -4 10 3 6 8 10 11 10 2 0 4 -4 4 -10z m-89 -193 c-11
-17 -21 -26 -21 -19 0 20 34 75 38 62 2 -6 -6 -25 -17 -43z m-66 -147 c-24
-45 -29 -31 -8 21 11 27 19 38 21 27 2 -9 -4 -31 -13 -48z m-42 -100 c-3 -11
-7 -20 -9 -20 -2 0 -4 9 -4 20 0 11 4 20 9 20 5 0 7 -9 4 -20z m-60 -145 c-3
-9 -8 -14 -10 -11 -3 3 -2 9 2 15 9 16 15 13 8 -4z m-37 -96 c-9 -19 -15 -29
-16 -22 0 15 22 64 27 60 2 -2 -3 -19 -11 -38z m-65 -172 c-10 -9 -11 -8 -5 6
3 10 9 15 12 12 3 -3 0 -11 -7 -18z m-14 -49 c-3 -7 -5 -2 -5 12 0 14 2 19 5
13 2 -7 2 -19 0 -25z m-44 -148 c-6 -22 -23 -38 -23 -21 0 17 12 41 20 41 5 0
6 -9 3 -20z m2014 -2 c-3 -8 -6 -5 -6 6 -1 11 2 17 5 13 3 -3 4 -12 1 -19z
m-2034 -58 c-5 -19 -23 -39 -23 -25 0 9 20 45 24 45 2 0 2 -9 -1 -20z m2044
-52 c-3 -7 -5 -2 -5 12 0 14 2 19 5 13 2 -7 2 -19 0 -25z m-2075 -39 c-4 -18
-11 -29 -14 -24 -3 6 -1 26 5 45 12 44 21 24 9 -21z m-29 -104 c-3 -9 -8 -14
-10 -11 -3 3 -2 9 2 15 9 16 15 13 8 -4z m-22 -68 c-10 -9 -11 -8 -5 6 3 10 9
15 12 12 3 -3 0 -11 -7 -18z m2386 -139 c-3 -7 -5 -2 -5 12 0 14 2 19 5 13 2
-7 2 -19 0 -25z m-2452 -148 c-4 -12 -9 -19 -12 -17 -3 3 -2 15 2 27 4 12 9
19 12 17 3 -3 2 -15 -2 -27z m490 -78 c-41 -176 -195 -411 -306 -468 l-47 -24
8 31 c23 79 225 420 292 492 60 64 73 56 53 -31z m82 16 c-2 -13 -4 -5 -4 17
-1 22 1 32 4 23 2 -10 2 -28 0 -40z m1826 17 c-3 -9 -8 -14 -10 -11 -3 3 -2 9
2 15 9 16 15 13 8 -4z m-2403 -5 c0 -5 -4 -10 -10 -10 -5 0 -10 5 -10 10 0 6
5 10 10 10 6 0 10 -4 10 -10z m-23 -82 c-3 -8 -6 -5 -6 6 -1 11 2 17 5 13 3
-3 4 -12 1 -19z m173 -343 c0 -8 -4 -15 -10 -15 -5 0 -7 7 -4 15 4 8 8 15 10
15 2 0 4 -7 4 -15z m-233 -27 c-3 -8 -6 -5 -6 6 -1 11 2 17 5 13 3 -3 4 -12 1
-19z m-20 -130 c-3 -7 -5 -2 -5 12 0 14 2 19 5 13 2 -7 2 -19 0 -25z m63 -138
c0 -13 -28 -25 -38 -16 -3 4 0 11 8 16 20 13 30 12 30 0z m-37 -120 c-3 -11
-7 -20 -9 -20 -2 0 -4 9 -4 20 0 11 4 20 9 20 5 0 7 -9 4 -20z m58 -21 c-9
-22 -10 -22 -10 -3 -1 11 2 24 6 27 12 12 14 0 4 -24z m-36 -135 c-9 -35 -21
-66 -25 -69 -9 -5 2 53 21 114 20 67 24 28 4 -45z m-39 -167 c-15 -76 -32
-107 -21 -37 7 50 25 113 30 108 2 -2 -2 -34 -9 -71z"/>
</g>
</svg>
